<svg width="36" height="36" viewBox="0 0 36 36" fill="none" xmlns="http://www.w3.org/2000/svg">
<circle cx="18" cy="18" r="18" fill="#F26A1D"/>
<path d="M8.12891 9.29005C8.12891 8.00732 9.16876 6.96747 10.4515 6.96747H27.8708V9.29005C27.8708 10.5728 26.831 11.6126 25.5483 11.6126H8.12891V9.29005Z" fill="white"/>
<path d="M12.7742 16.8385C12.7742 15.5558 13.814 14.5159 15.0967 14.5159H25.9018C26.9893 14.5159 27.8709 15.3975 27.8709 16.4851V19.1611H15.0967C13.814 19.1611 12.7742 18.1212 12.7742 16.8385V16.8385Z" fill="white"/>
<path d="M10.1269 20.3224C11.589 20.3224 12.7742 21.5077 12.7742 22.9697V26.6459C12.7742 27.9638 11.7058 29.0321 10.388 29.0321H8.12901V22.3204C8.12901 21.2169 9.02351 20.3224 10.1269 20.3224V20.3224Z" fill="white"/>
<path d="M16.4823 14.5991C15.2281 14.4076 13.9457 14.5482 12.7628 15.0069C11.5799 15.4656 10.538 16.2264 9.74075 17.2133C8.94356 18.2003 8.41899 19.3789 8.21934 20.6318C8.01969 21.8847 8.15194 23.168 8.6029 24.3539L12.7582 22.7737C12.5834 22.3142 12.5322 21.8169 12.6096 21.3314C12.6869 20.8459 12.8902 20.3892 13.1991 20.0068C13.508 19.6243 13.9118 19.3295 14.3701 19.1518C14.8285 18.9741 15.3254 18.9196 15.8114 18.9938L16.4823 14.5991Z" fill="white"/>
<path d="M12.7733 22.0644V22.9354L12.1926 22.6451V18.5806H16.8378L18.2894 19.1612H15.6765C15.209 19.1612 14.9481 19.2752 14.5152 19.4515C14.2515 19.6341 13.9346 19.7419 13.6442 20.0322C13.465 20.2114 13.1635 20.6701 13.0636 20.9031C12.9224 21.2327 12.7733 21.7059 12.7733 22.0644Z" fill="white"/>
</svg>
